<svg xmlns="http://www.w3.org/2000/svg" viewBox="0 0 95 19"><path fill="none" d="M0 0h95v19H0z"/><path d="M17.29 17.28V2.14h9.45v2.02h-7.1v4.79h6.5v1.98h-6.5v6.34h-2.35zM28.32 3.33c0-.72.59-1.3 1.31-1.3s1.31.58 1.31 1.3-.59 1.3-1.31 1.3-1.31-.59-1.31-1.3zm.18 2.92h2.27v11.04H28.5V6.24zm7.87-2.61v2.61h2.1v1.79h-2.1v6.09c0 .95.42 1.38 1.34 1.38.23 0 .6-.02.74-.05v1.79c-.25.06-.76.11-1.26.11-2.23 0-3.11-.85-3.11-2.98V8.04h-1.61V6.25h1.61V3.63h2.28zm4 2.61h2.16V8.1h.05c.6-1.26 1.77-2.04 3.47-2.04 2.43 0 3.83 1.55 3.83 4.08v7.14H47.6v-6.7c0-1.66-.78-2.57-2.35-2.57s-2.62 1.13-2.62 2.84v6.43h-2.27V6.24zm20.95 7.8c-.31 2.01-2.22 3.45-4.75 3.45-3.24 0-5.2-2.19-5.2-5.68s1.99-5.77 5.11-5.77 4.97 2.16 4.97 5.51v.78h-7.8v.14c0 1.92 1.15 3.19 2.97 3.19 1.29 0 2.25-.65 2.55-1.62h2.15zm-7.66-3.29h5.52c-.05-1.69-1.12-2.87-2.71-2.87s-2.7 1.21-2.81 2.87zm13.58-4.7c2.57 0 4.24 1.43 4.31 3.46h-2.13c-.13-1.07-.91-1.74-2.18-1.74s-2.05.6-2.05 1.48c0 .69.5 1.16 1.7 1.44l1.79.41c2.26.52 3.12 1.41 3.12 3 0 2.01-1.88 3.4-4.48 3.4-2.76 0-4.42-1.35-4.63-3.45h2.25c.21 1.15 1 1.72 2.38 1.72s2.2-.57 2.2-1.47c0-.71-.41-1.13-1.62-1.41l-1.79-.42c-2.1-.48-3.14-1.49-3.14-3.1 0-1.97 1.72-3.33 4.26-3.33zm10.25 0c2.57 0 4.24 1.43 4.31 3.46h-2.13c-.13-1.07-.91-1.74-2.18-1.74s-2.05.6-2.05 1.48c0 .69.5 1.16 1.7 1.44l1.79.41c2.26.52 3.12 1.41 3.12 3 0 2.01-1.88 3.4-4.48 3.4-2.76 0-4.42-1.35-4.63-3.45h2.25c.21 1.15 1 1.72 2.38 1.72s2.2-.57 2.2-1.47c0-.71-.41-1.13-1.62-1.41l-1.79-.42c-2.1-.48-3.14-1.49-3.14-3.1 0-1.97 1.72-3.33 4.26-3.33zm12.22 11.25h-2.07v-4.5h-4.28v-2.05h4.28v-4.5h2.07v4.5H94v2.05h-4.29v4.5zM10.93 4.96c-1.35-.1-2.5.75-3.14.75S6.14 4.98 5.08 5c-1.39.02-2.68.81-3.39 2.06-1.45 2.51-.37 6.23 1.04 8.27.69 1 1.51 2.12 2.59 2.08 1.04-.04 1.43-.67 2.69-.67s1.61.67 2.71.65c1.12-.02 1.83-1.02 2.51-2.02.79-1.16 1.12-2.27 1.14-2.33-.02 0-2.18-.84-2.2-3.32-.02-2.08 1.69-3.07 1.77-3.12-.97-1.43-2.48-1.59-3.01-1.63zm-.83-1.34c.57-.69.96-1.66.85-2.62-.83.03-1.82.55-2.42 1.24-.53.61-1 1.6-.87 2.54.92.07 1.86-.47 2.43-1.16z" fill="#fff"/></svg>