<?xml version="1.0" encoding="utf-8"?>
<!-- Generator: Adobe Illustrator 27.9.0, SVG Export Plug-In . SVG Version: 6.00 Build 0)  -->
<svg version="1.1" id="Layer_1" xmlns="http://www.w3.org/2000/svg" xmlns:xlink="http://www.w3.org/1999/xlink" x="0px" y="0px"
	 viewBox="0 0 36 19" style="enable-background:new 0 0 36 19;" xml:space="preserve">
<style type="text/css">
	.st0{fill:none;}
	.st1{fill:#FFFFFF;}
</style>
<path class="st0" d="M0,0h47v19H0V0z"/>
<path class="st0" d="M12.2-23.9h34.8v17.2H12.2C12.2-6.7,12.2-23.9,12.2-23.9z"/>
<path class="st1" d="M11.2,5.2C9.9,5,8.6,5.9,8,5.9S6.3,5.2,5.2,5.2c-1.4,0-2.8,0.9-3.5,2.1c-1.5,2.6-0.4,6.4,1.1,8.6
	c0.7,1.1,1.6,2.2,2.7,2.1c1.1,0,1.5-0.7,2.8-0.7S9.9,18,11,17.9c1.2,0,1.9-1.1,2.6-2.1c0.8-1.2,1.2-2.3,1.2-2.4c0,0-2.2-0.9-2.2-3.4
	c0-2.1,1.8-3.2,1.9-3.2C13.4,5.3,11.8,5.2,11.2,5.2z M10.4,3.7C11,3,11.4,2,11.3,1.1c-0.9,0-1.9,0.5-2.5,1.2C8.3,2.9,7.7,4,7.9,4.9
	C8.8,5,9.8,4.5,10.4,3.7z M17.8,3v2.9H16V8h1.8v6.6c0,2.3,1,3.3,3.4,3.3c0.5,0,1.1,0,1.3-0.1h0.1v-2.1h-0.2c-0.2,0-0.5,0.1-0.8,0.1
	c-0.9,0-1.3-0.4-1.3-1.3V8h2.2V5.9h-2.2V3H17.8z M32.4,5.9l-2.9,9.2l-2.9-9.2H24l4.2,11.9h2.7L35,5.9C35.1,5.9,32.4,5.9,32.4,5.9z"
	/>
</svg>
