<svg xmlns="http://www.w3.org/2000/svg" viewBox="0 0 85 19"><path fill="none" d="M0 0h85v19H0z"/><path d="M10.37 3.71c.58-.73.98-1.71.87-2.71-.85.04-1.9.56-2.5 1.29-.54.63-1.02 1.65-.9 2.61.96.08 1.92-.48 2.52-1.19m.86 1.38c-1.39-.08-2.58.79-3.24.79S6.3 5.13 5.2 5.15c-1.43.02-2.76.83-3.49 2.12-1.5 2.58-.39 6.4 1.06 8.5.71 1.04 1.56 2.18 2.68 2.14 1.06-.04 1.48-.69 2.76-.69s1.66.69 2.78.67c1.16-.02 1.89-1.04 2.6-2.08.81-1.18 1.14-2.33 1.16-2.39-.02-.02-2.24-.87-2.26-3.43-.02-2.14 1.75-3.16 1.83-3.22-1-1.48-2.56-1.64-3.1-1.68m14.92 8.48H20.2l-1.43 4.22h-2.52l5.64-15.6h2.62l5.63 15.6h-2.56l-1.43-4.22zm-5.33-1.95h4.71L23.2 4.78h-.06l-2.32 6.84zm10.64-5.21h2.23v1.93h.05c.38-1.33 1.39-2.12 2.73-2.12.33 0 .63.05.8.09v2.17c-.18-.08-.59-.13-1.05-.13-1.5 0-2.43 1.01-2.43 2.62v6.81h-2.33V6.41zm14.35 3.91c-.24-1.21-1.15-2.17-2.67-2.17-1.8 0-2.99 1.5-2.99 3.94s1.2 3.94 3.02 3.94c1.44 0 2.38-.79 2.65-2.11h2.25c-.25 2.42-2.18 4.06-4.92 4.06-3.25 0-5.37-2.23-5.37-5.9s2.12-5.89 5.35-5.89c2.93 0 4.71 1.88 4.92 4.12h-2.23zm3.45 4.23c0-1.99 1.52-3.21 4.23-3.36l3.11-.18v-.88c0-1.26-.85-2.02-2.28-2.02-1.35 0-2.19.65-2.4 1.66h-2.2c.13-2.05 1.88-3.57 4.69-3.57s4.52 1.46 4.52 3.74v7.84h-2.24v-1.87h-.05c-.66 1.26-2.1 2.06-3.59 2.06-2.23 0-3.78-1.38-3.78-3.43zm7.34-1.03v-.9l-2.8.17c-1.39.1-2.18.71-2.18 1.69s.82 1.64 2.08 1.64c1.63 0 2.91-1.12 2.91-2.6zm3.97-1.43c0-3.59 1.9-5.87 4.76-5.87 1.63 0 2.93.82 3.57 2.08h.04V2.19h2.35v15.6h-2.27v-1.93h-.04c-.67 1.3-1.97 2.13-3.62 2.13-2.87 0-4.78-2.29-4.78-5.88zm2.39 0c0 2.4 1.16 3.9 3 3.9s2.99-1.52 2.99-3.9-1.2-3.9-2.99-3.9c-1.85 0-3 1.51-3 3.9zm20.26 2.35c-.32 2.08-2.29 3.56-4.9 3.56-3.34 0-5.36-2.26-5.36-5.85S75 6.21 78.21 6.21s5.12 2.23 5.12 5.67v.8H75.3v.14c0 1.98 1.19 3.29 3.06 3.29 1.33 0 2.31-.67 2.63-1.66h2.22zm-7.89-3.39H81c-.05-1.74-1.16-2.96-2.79-2.96s-2.78 1.24-2.9 2.96z" fill="#fff"/></svg>